<svg width="271" height="155" viewBox="0 0 271 155" fill="none" xmlns="http://www.w3.org/2000/svg">
<path fillRule="evenodd" clipRule="evenodd" d="M244.622 98.8573C240.691 108.651 235.212 118.37 228.05 128.792C248.253 127.06 264.805 112.543 269.577 93.368C262.175 95.2696 254.056 97.0569 244.622 98.8573ZM241.675 99.4123C237.673 108.986 232.13 118.573 224.873 128.958C224.577 128.963 224.28 128.966 223.983 128.966C207.814 128.966 193.553 120.798 185.1 108.364C208.636 105.012 226.775 102.181 241.675 99.4123ZM245.691 96.0889C254.944 94.2971 262.904 92.5143 270.175 90.6133C270.695 87.8157 270.966 84.9311 270.966 81.9831C270.966 79.6387 270.794 77.3344 270.463 75.0821C264.003 72.5746 257.857 70.5303 251.864 68.94C251.264 75.2806 250.167 81.3369 248.536 87.2712C247.721 90.2372 246.774 93.1696 245.691 96.0889ZM242.79 96.6431C227.429 99.5379 208.546 102.49 183.614 106.033C182.95 104.922 182.331 103.781 181.76 102.613L203.217 65.8523C208.973 65.116 214.491 64.7354 219.89 64.7139C229.856 64.6742 239.441 65.8582 249.395 68.3084C248.816 74.6615 247.731 80.701 246.109 86.6044C245.182 89.98 244.078 93.3153 242.79 96.6431ZM269.943 72.1861C263.772 69.8392 257.863 67.9096 252.078 66.3933C252.587 59.424 252.515 52.0942 251.909 44.1961C260.963 50.8984 267.523 60.7773 269.943 72.1861ZM249.599 65.7671C250.104 58.4802 249.966 50.7616 249.232 42.3541C241.94 37.6982 233.276 35 223.983 35C223.041 35 222.106 35.0277 221.178 35.0824L204.81 63.1231C209.977 62.5268 214.972 62.2165 219.88 62.197C229.944 62.1569 239.613 63.3399 249.599 65.7671ZM201.665 63.5184L218.099 35.3649C199.649 37.6701 184.524 50.6726 179.126 67.9686C187.12 65.9699 194.565 64.4824 201.665 63.5184ZM200.047 66.29C193.231 67.2994 186.061 68.7916 178.349 70.7612C177.467 74.3571 177 78.1155 177 81.9831C177 88.286 178.241 94.2991 180.492 99.7913L200.047 66.29Z" fill="#A0CEEF"/>
<path fillRule="evenodd" clipRule="evenodd" d="M56.3567 0.178473C61.7184 0.621321 66.8494 1.87734 71.6263 3.82292L65.4724 26.7896C58.8007 25.3838 52.3313 24.6443 45.9105 24.5345C50.5365 15.9573 53.9071 8.02598 56.3567 0.178473ZM44.535 27.0375C51.1753 27.0588 57.8744 27.7698 64.82 29.2244L54.2686 68.6025L9.56748 76.9158C25.4977 56.9068 36.6873 41.0638 44.535 27.0375ZM8.01135 79.7653C16.0263 92.4494 29.3737 101.428 44.904 103.552L53.5467 71.2969L8.01135 79.7653ZM56.2891 70.7869L47.4339 103.835C48.944 103.967 50.4726 104.034 52.0169 104.034C77.2993 104.034 98.3689 85.9968 103.06 62.0888L56.2891 70.7869ZM103.507 59.4453C103.854 57.0192 104.034 54.539 104.034 52.017C104.034 49.0687 103.789 46.1777 103.317 43.3633C90.1359 36.8095 78.3715 32.3491 67.28 29.7683L57.011 68.0925L103.507 59.4453ZM73.9593 4.84079L67.9317 27.3358C78.7374 29.8582 90.1137 34.1131 102.698 40.2525C99.0598 24.5163 88.2814 11.5135 73.9593 4.84079ZM43.0492 24.5271C47.8205 15.8399 51.271 7.87285 53.7661 0.0288709C53.1854 0.00968413 52.6023 1.52588e-05 52.0169 1.52588e-05C30.3528 1.52588e-05 11.7819 13.2439 3.9589 32.077C17.1807 27.4759 29.4174 24.8592 41.763 24.5509C42.1917 24.5402 42.6204 24.5323 43.0492 24.5271ZM41.6253 27.0723C29.0519 27.4124 16.5358 30.2075 2.79189 35.1608C0.982159 40.4471 0 46.1173 0 52.017C0 61.0404 2.29758 69.5271 6.33964 76.9242C22.4166 56.8219 33.7028 40.9821 41.6253 27.0723Z" fill="#A0CEEF"/>
<rect x="67.1184" y="9.84747" width="145.144" height="145.144" fill="#EDF4FB"/>
<path d="M210.718 45.3026H68.6625C67.809 45.3026 67.1184 44.612 67.1184 43.7586V11.3916C67.1184 10.5381 67.809 9.84747 68.6625 9.84747H210.718C211.572 9.84747 212.262 10.5381 212.262 11.3916V43.7586C212.262 44.612 211.572 45.3026 210.718 45.3026ZM70.2066 42.2145H209.174V12.9356H70.2066V42.2145Z" fill="#EAA827"/>
<path d="M210.718 154.992H68.6622C67.8088 154.992 67.1182 154.301 67.1182 153.447V43.7586C67.1182 42.9051 67.8088 42.2145 68.6622 42.2145H210.718C211.572 42.2145 212.262 42.9051 212.262 43.7586V153.447C212.262 154.301 211.572 154.992 210.718 154.992ZM70.2063 151.903H209.174V45.3026H70.2063V151.903Z" fill="#EAA827"/>
<path d="M87.3239 29.1214C87.1083 29.1214 86.9228 29.0898 86.7373 28.9978C86.5519 28.9359 86.3664 28.8123 86.2442 28.6585C86.0889 28.5348 85.9653 28.3494 85.9035 28.1639C85.8115 27.9784 85.7798 27.793 85.7798 27.5773C85.7798 27.1762 85.9351 26.7736 86.2442 26.4962C86.7992 25.9096 87.8185 25.9096 88.4051 26.4962C88.7142 26.7736 88.868 27.1762 88.868 27.5773C88.868 27.793 88.8378 27.9784 88.7443 28.1639C88.6825 28.3494 88.5604 28.5348 88.4051 28.6585C88.1276 28.9676 87.7265 29.1214 87.3239 29.1214Z" fill="#EAA827"/>
<path d="M112.802 29.1199C112.401 29.1199 112 28.9661 111.722 28.657C111.443 28.378 111.258 27.9769 111.258 27.5758C111.258 27.1747 111.443 26.7721 111.722 26.4946C112.309 25.9081 113.328 25.9081 113.915 26.4946C114.192 26.7721 114.346 27.1747 114.346 27.5758C114.346 27.9769 114.192 28.378 113.915 28.657C113.605 28.9661 113.204 29.1199 112.802 29.1199Z" fill="#EAA827"/>
<path d="M138.28 29.1199C137.879 29.1199 137.478 28.9661 137.2 28.657C136.921 28.378 136.736 27.9769 136.736 27.5758C136.736 27.1747 136.921 26.7721 137.2 26.4947C137.632 26.0619 138.312 25.9081 138.898 26.1554C139.084 26.2172 139.238 26.3408 139.393 26.4947C139.67 26.7721 139.856 27.1747 139.856 27.5758C139.856 27.7613 139.794 27.9769 139.732 28.1624C139.639 28.3479 139.517 28.5333 139.393 28.657C139.238 28.8108 139.084 28.9344 138.898 28.9963C138.683 29.0882 138.497 29.1199 138.28 29.1199Z" fill="#EAA827"/>
<path d="M192.056 29.1199H172.488C171.635 29.1199 170.944 28.4293 170.944 27.5758C170.944 26.7223 171.635 26.0317 172.488 26.0317H192.056C192.909 26.0317 193.6 26.7223 193.6 27.5758C193.6 28.4293 192.909 29.1199 192.056 29.1199Z" fill="#EAA827"/>
<path d="M124.239 86.1907H117.808L124.182 76.0887H124.239V86.1907ZM126.914 72.93H123.527L114.962 86.0484V88.5526H124.239V93.0771H126.914V88.5526H129.816V86.1907H126.914V72.93ZM139.484 74.7228C142.756 74.7228 143.524 79.5888 143.524 83.0036C143.524 86.4183 142.756 91.2559 139.484 91.2559C136.154 91.2559 135.414 86.4183 135.414 83.0036C135.414 79.5888 136.154 74.7228 139.484 74.7228ZM139.484 72.4178C134.675 72.4178 132.597 77.1416 132.597 83.0036C132.597 88.894 134.675 93.5893 139.484 93.5893C144.264 93.5893 146.342 88.894 146.342 83.0036C146.342 77.1416 144.264 72.4178 139.484 72.4178ZM158.086 86.1907H151.655L158.029 76.0887H158.086V86.1907ZM160.761 72.93H157.375L148.81 86.0484V88.5526H158.086V93.0771H160.761V88.5526H163.664V86.1907H160.761V72.93Z" fill="#EAA827"/>
<path d="M97.9028 114.828H107.407V112.41H97.9028V106.377H108.005V103.901H95.0856V124.048H108.432V121.544H97.9028V114.828ZM114.993 106.291H118.436C120.855 106.291 122.961 107.06 122.961 109.479C122.961 111.869 120.855 112.723 118.237 112.723H114.993V106.291ZM114.993 115.084H118.01L123.132 124.048H126.546L120.912 114.8C123.786 114.316 125.807 112.438 125.807 109.479C125.807 105.381 122.534 103.901 118.636 103.901H112.176V124.048H114.993V115.084ZM132.473 106.291H135.916C138.335 106.291 140.441 107.06 140.441 109.479C140.441 111.869 138.335 112.723 135.717 112.723H132.473V106.291ZM132.473 115.084H135.489L140.611 124.048H144.026L138.392 114.8C141.266 114.316 143.286 112.438 143.286 109.479C143.286 105.381 140.014 103.901 136.115 103.901H129.656V124.048H132.473V115.084ZM164.408 113.946C164.408 118.442 161.42 122.028 156.753 122.028C152.143 122.028 149.155 118.442 149.155 113.946C149.155 109.535 152.115 105.865 156.753 105.865C161.42 105.865 164.408 109.535 164.408 113.946ZM167.453 113.946C167.453 107.657 162.9 103.389 156.753 103.389C150.607 103.389 146.111 107.657 146.111 113.946C146.111 120.178 150.607 124.56 156.753 124.56C162.9 124.56 167.453 120.178 167.453 113.946ZM174.101 106.291H177.544C179.963 106.291 182.069 107.06 182.069 109.479C182.069 111.869 179.963 112.723 177.345 112.723H174.101V106.291ZM174.101 115.084H177.118L182.24 124.048H185.654L180.02 114.8C182.894 114.316 184.915 112.438 184.915 109.479C184.915 105.381 181.642 103.901 177.744 103.901H171.284V124.048H174.101V115.084Z" fill="#EAA827"/>
</svg>
